<svg xmlns="http://www.w3.org/2000/svg" width="375" viewBox="0 0 375 375" height="375" version="1.0"><defs><clipPath id="a"><path d="M 152 73 L 229 73 L 229 131 L 152 131 Z M 152 73"/></clipPath><clipPath id="b"><path d="M 135.148438 66.191406 L 235.492188 71.746094 L 232.175781 131.65625 L 131.828125 126.097656 Z M 135.148438 66.191406"/></clipPath><clipPath id="c"><path d="M 43.34375 61.109375 L 235.050781 71.722656 L 219.253906 357.035156 L 27.546875 346.421875 Z M 43.34375 61.109375"/></clipPath><clipPath id="d"><path d="M 163 81 L 218 81 L 218 121 L 163 121 Z M 163 81"/></clipPath><clipPath id="e"><path d="M 135.148438 66.191406 L 235.492188 71.746094 L 232.175781 131.65625 L 131.828125 126.097656 Z M 135.148438 66.191406"/></clipPath><clipPath id="f"><path d="M 43.34375 61.109375 L 235.050781 71.722656 L 219.253906 357.035156 L 27.546875 346.421875 Z M 43.34375 61.109375"/></clipPath><clipPath id="g"><path d="M 173 88 L 181 88 L 181 110 L 173 110 Z M 173 88"/></clipPath><clipPath id="h"><path d="M 135.148438 66.191406 L 235.492188 71.746094 L 232.175781 131.65625 L 131.828125 126.097656 Z M 135.148438 66.191406"/></clipPath><clipPath id="i"><path d="M 43.34375 61.109375 L 235.050781 71.722656 L 219.253906 357.035156 L 27.546875 346.421875 Z M 43.34375 61.109375"/></clipPath><clipPath id="j"><path d="M 192 102 L 200 102 L 200 120 L 192 120 Z M 192 102"/></clipPath><clipPath id="k"><path d="M 135.148438 66.191406 L 235.492188 71.746094 L 232.175781 131.65625 L 131.828125 126.097656 Z M 135.148438 66.191406"/></clipPath><clipPath id="l"><path d="M 43.34375 61.109375 L 235.050781 71.722656 L 219.253906 357.035156 L 27.546875 346.421875 Z M 43.34375 61.109375"/></clipPath><clipPath id="m"><path d="M 177 89 L 198 89 L 198 96 L 177 96 Z M 177 89"/></clipPath><clipPath id="n"><path d="M 135.148438 66.191406 L 235.492188 71.746094 L 232.175781 131.65625 L 131.828125 126.097656 Z M 135.148438 66.191406"/></clipPath><clipPath id="o"><path d="M 43.34375 61.109375 L 235.050781 71.722656 L 219.253906 357.035156 L 27.546875 346.421875 Z M 43.34375 61.109375"/></clipPath><clipPath id="p"><path d="M 195 105 L 214 105 L 214 110 L 195 110 Z M 195 105"/></clipPath><clipPath id="q"><path d="M 135.148438 66.191406 L 235.492188 71.746094 L 232.175781 131.65625 L 131.828125 126.097656 Z M 135.148438 66.191406"/></clipPath><clipPath id="r"><path d="M 43.34375 61.109375 L 235.050781 71.722656 L 219.253906 357.035156 L 27.546875 346.421875 Z M 43.34375 61.109375"/></clipPath><clipPath id="s"><path d="M 131 67 L 159 67 L 159 131 L 131 131 Z M 131 67"/></clipPath><clipPath id="t"><path d="M 135.148438 66.191406 L 235.492188 71.746094 L 232.175781 131.65625 L 131.828125 126.097656 Z M 135.148438 66.191406"/></clipPath><clipPath id="u"><path d="M 43.34375 61.109375 L 235.050781 71.722656 L 219.253906 357.035156 L 27.546875 346.421875 Z M 43.34375 61.109375"/></clipPath><clipPath id="v"><path d="M 131 117 L 220 117 L 220 132 L 131 132 Z M 131 117"/></clipPath><clipPath id="w"><path d="M 135.148438 66.191406 L 235.492188 71.746094 L 232.175781 131.65625 L 131.828125 126.097656 Z M 135.148438 66.191406"/></clipPath><clipPath id="x"><path d="M 43.34375 61.109375 L 235.050781 71.722656 L 219.253906 357.035156 L 27.546875 346.421875 Z M 43.34375 61.109375"/></clipPath><clipPath id="y"><path d="M 130 111 L 315 111 L 315 315 L 130 315 Z M 130 111"/></clipPath><clipPath id="z"><path d="M 351.460938 235.765625 L 211.464844 351.277344 L 61.585938 169.628906 L 201.582031 54.117188 Z M 351.460938 235.765625"/></clipPath><clipPath id="A"><path d="M 351.460938 235.765625 L 211.464844 351.277344 L 61.585938 169.628906 L 201.582031 54.117188 Z M 351.460938 235.765625"/></clipPath></defs><path fill="#FFF" d="M-37.5 -37.5H412.5V412.5H-37.5z"/><path fill="#FFF" d="M-37.5 -37.5H412.5V412.5H-37.5z"/><path fill="#F0E68C" d="M-37.5 -37.5H412.5V412.5H-37.5z"/><g clip-path="url(#a)"><g clip-path="url(#b)"><g clip-path="url(#c)"><path fill="#F0E68C" d="M 178.289062 117.785156 C 157.527344 102.832031 152.792969 73.871094 152.792969 73.871094 C 152.792969 73.871094 181.71875 69.148438 202.492188 84.089844 C 223.265625 99.027344 231.695312 122.84375 227.988281 128 C 224.28125 133.15625 199.050781 132.734375 178.289062 117.785156 Z M 178.289062 117.785156"/></g></g></g><g clip-path="url(#d)"><g clip-path="url(#e)"><g clip-path="url(#f)"><path fill="#F0E68C" d="M 164.191406 83.835938 C 181.125 96.035156 198.070312 108.222656 215.003906 120.421875 C 216.496094 121.5 218.074219 119.101562 216.578125 118.035156 C 199.644531 105.835938 182.699219 93.648438 165.765625 81.449219 C 164.273438 80.371094 162.699219 82.769531 164.191406 83.835938 Z M 164.191406 83.835938"/></g></g></g><g clip-path="url(#g)"><g clip-path="url(#h)"><g clip-path="url(#i)"><path fill="#F0E68C" d="M 173.566406 91.25 C 177.378906 96.0625 178.796875 101.570312 177.347656 107.566406 C 176.910156 109.347656 179.621094 110.269531 180.058594 108.480469 C 181.753906 101.421875 180.1875 95 175.695312 89.332031 C 174.554688 87.902344 172.425781 89.8125 173.566406 91.25 Z M 173.566406 91.25"/></g></g></g><g clip-path="url(#j)"><g clip-path="url(#k)"><g clip-path="url(#l)"><path fill="#F0E68C" d="M 192.628906 104.542969 C 195.9375 108.363281 197.378906 113.042969 196.878906 118.0625 C 196.699219 119.898438 199.550781 120.058594 199.730469 118.222656 C 200.304688 112.488281 198.519531 106.984375 194.757812 102.632812 C 193.5625 101.234375 191.421875 103.140625 192.628906 104.542969 Z M 192.628906 104.542969"/></g></g></g><g clip-path="url(#m)"><g clip-path="url(#n)"><g clip-path="url(#o)"><path fill="#F0E68C" d="M 178.027344 94.21875 C 184.636719 96.609375 191.238281 96.125 197.226562 92.359375 C 198.78125 91.382812 197.488281 88.828125 195.925781 89.8125 C 190.527344 93.210938 184.933594 93.671875 178.949219 91.503906 C 177.207031 90.882812 176.308594 93.597656 178.027344 94.21875 Z M 178.027344 94.21875"/></g></g></g><g clip-path="url(#p)"><g clip-path="url(#q)"><g clip-path="url(#r)"><path fill="#F0E68C" d="M 196.679688 108.089844 C 202.039062 110.277344 207.769531 110.113281 213.042969 107.753906 C 214.730469 106.996094 213.417969 104.449219 211.742188 105.207031 C 207.144531 107.269531 202.25 107.277344 197.601562 105.375 C 195.886719 104.675781 194.984375 107.402344 196.679688 108.089844 Z M 196.679688 108.089844"/></g></g></g><g clip-path="url(#s)"><g clip-path="url(#t)"><g clip-path="url(#u)"><path fill="#4F3D20" d="M 143.898438 126.492188 C 143.703125 126.972656 143.441406 127.472656 143.117188 127.914062 C 142.957031 128.140625 142.777344 128.355469 142.589844 128.546875 C 142.328125 128.800781 142.375 128.789062 141.847656 129.21875 C 140.863281 130.027344 139.265625 130.601562 137.902344 130.570312 C 137.121094 130.558594 136.734375 130.472656 136.449219 130.398438 C 136.097656 130.3125 135.746094 130.203125 135.40625 130.0625 C 134.75 129.800781 134.015625 129.300781 133.644531 128.957031 C 133.484375 128.8125 133.335938 128.671875 133.1875 128.515625 C 133.039062 128.363281 132.902344 128.199219 132.777344 128.035156 L 132.589844 127.777344 L 132.507812 127.664062 C 132.34375 127.417969 132.121094 127.015625 132.050781 126.863281 L 131.832031 126.371094 C 131.644531 125.902344 131.542969 125.539062 131.46875 125.265625 C 131.320312 124.6875 131.234375 124.234375 131.167969 123.804688 C 131.039062 122.9375 130.96875 122.171875 130.921875 121.417969 C 130.835938 119.914062 130.859375 118.492188 130.9375 117.097656 C 131.101562 114.308594 131.496094 111.632812 132.054688 109.011719 C 133.160156 103.789062 134.898438 98.847656 136.992188 94.152344 C 141.210938 84.757812 146.921875 76.367188 153.300781 68.75 C 154.316406 67.542969 156.117188 67.382812 157.324219 68.402344 C 158.445312 69.335938 158.65625 70.960938 157.875 72.148438 L 157.863281 72.160156 C 152.660156 80.144531 148.34375 88.644531 145.605469 97.449219 C 144.257812 101.839844 143.292969 106.308594 142.917969 110.699219 C 142.730469 112.894531 142.675781 115.074219 142.816406 117.152344 C 142.882812 118.183594 143.003906 119.199219 143.167969 120.113281 C 143.253906 120.566406 143.351562 121.007812 143.457031 121.339844 C 143.503906 121.511719 143.5625 121.636719 143.585938 121.648438 C 143.597656 121.660156 143.589844 121.59375 143.519531 121.410156 C 143.480469 121.320312 143.441406 121.214844 143.402344 121.125 C 143.371094 121.054688 143.191406 120.710938 143.054688 120.523438 L 142.816406 120.195312 C 142.703125 120.042969 142.574219 119.890625 142.4375 119.75 C 142.300781 119.609375 142.164062 119.476562 142.023438 119.347656 C 141.664062 119.011719 140.953125 118.527344 140.316406 118.277344 C 139.980469 118.136719 139.636719 118.027344 139.296875 117.953125 C 139.019531 117.894531 138.632812 117.804688 137.863281 117.785156 C 136.523438 117.742188 134.9375 118.316406 133.976562 119.125 C 133.460938 119.554688 133.507812 119.535156 133.246094 119.777344 C 133.070312 119.96875 132.902344 120.171875 132.742188 120.390625 C 132.429688 120.820312 132.167969 121.296875 131.984375 121.769531 C 133.285156 118.480469 136.996094 116.875 140.277344 118.175781 C 143.582031 119.488281 145.199219 123.203125 143.898438 126.492188 Z M 143.898438 126.492188"/></g></g></g><g clip-path="url(#v)"><g clip-path="url(#w)"><g clip-path="url(#x)"><path fill="#4F3D20" d="M 197.734375 220.496094 C 194.566406 214.914062 190.929688 209.316406 190.109375 202.9375 C 187.183594 180.464844 192.445312 156.335938 176.425781 137.515625 C 167.378906 126.882812 154.332031 120.171875 140.609375 118.226562 L 140.617188 118.09375 C 139.207031 117.9375 137.792969 117.847656 136.375 117.78125 C 134.960938 117.679688 133.546875 117.613281 132.125 117.625 L 132.117188 117.757812 C 118.253906 118.175781 104.558594 123.40625 94.394531 132.972656 C 76.394531 149.910156 78.949219 174.472656 73.570312 196.484375 C 72.039062 202.722656 67.820312 207.886719 64.054688 213.09375 C 45.570312 238.609375 32.117188 264.082031 35.507812 296.125 C 37.609375 315.953125 46.824219 328.394531 56.457031 337.167969 C 65.34375 345.269531 77.496094 349.078125 89.351562 349.632812 C 95.214844 349.914062 101.363281 349.527344 107.050781 347.992188 C 111.988281 346.667969 117.816406 343.921875 123.898438 343.351562 C 129.878906 344.589844 135.371094 347.960938 140.128906 349.824219 C 145.613281 351.976562 151.691406 353.039062 157.539062 353.410156 C 169.371094 354.164062 181.871094 351.722656 191.609375 344.648438 C 202.152344 336.996094 212.683594 325.644531 216.960938 306.171875 C 223.847656 274.707031 213.289062 247.90625 197.734375 220.496094 Z M 197.734375 220.496094"/></g></g></g><g clip-path="url(#y)"><g clip-path="url(#z)"><g clip-path="url(#A)"><path fill="#A2CF6F" d="M 192.078125 185.191406 C 215.773438 165.636719 250.835938 169.003906 270.398438 192.710938 C 289.953125 216.414062 286.597656 251.476562 262.902344 271.027344 C 239.207031 290.578125 204.144531 287.214844 184.589844 263.511719 C 165.027344 239.804688 168.382812 204.742188 192.078125 185.191406 Z M 281.414062 293.460938 C 320.066406 261.570312 325.542969 204.378906 293.644531 165.722656 C 261.746094 127.0625 131.566406 111.851562 131.566406 111.851562 C 131.566406 111.851562 121.777344 242.550781 153.675781 281.210938 C 185.574219 319.871094 242.761719 325.351562 281.414062 293.460938"/></g></g></g><path fill="#4F3D20" d="M 228.492188 285.054688 C 213.375 285.054688 199.140625 279.171875 188.460938 268.46875 C 177.757812 257.789062 171.875 243.554688 171.875 228.441406 C 171.875 213.324219 177.757812 199.09375 188.460938 188.414062 C 199.140625 177.710938 213.375 171.828125 228.492188 171.828125 C 243.605469 171.828125 257.839844 177.710938 268.519531 188.414062 C 279.222656 199.117188 285.105469 213.324219 285.105469 228.441406 C 285.105469 243.554688 279.222656 257.789062 268.519531 268.46875 C 257.839844 279.171875 243.605469 285.054688 228.492188 285.054688 Z M 228.492188 175.21875 C 214.28125 175.21875 200.90625 180.765625 190.859375 190.8125 C 180.8125 200.859375 175.269531 214.230469 175.269531 228.441406 C 175.269531 242.652344 180.8125 256.023438 190.859375 266.070312 C 200.90625 276.117188 214.28125 281.660156 228.492188 281.660156 C 242.699219 281.660156 256.074219 276.117188 266.121094 266.070312 C 276.167969 256.023438 281.710938 242.652344 281.710938 228.441406 C 281.710938 214.230469 276.167969 200.859375 266.121094 190.8125 C 256.074219 180.765625 242.699219 175.21875 228.492188 175.21875 Z M 228.492188 175.21875"/><g fill="#4F3D20"><g><g><path d="M 17.296875 0.359375 C 12.566406 0.359375 8.882812 -0.976562 6.25 -3.65625 C 3.625 -6.332031 2.3125 -9.863281 2.3125 -14.25 C 2.3125 -18.15625 3.082031 -21.578125 4.625 -24.515625 C 6.164062 -27.460938 8.164062 -29.734375 10.625 -31.328125 C 13.09375 -32.921875 15.675781 -33.71875 18.375 -33.71875 C 21.03125 -33.71875 23.09375 -32.929688 24.5625 -31.359375 C 26.03125 -29.796875 26.765625 -27.785156 26.765625 -25.328125 C 26.765625 -23.296875 26.316406 -21.582031 25.421875 -20.1875 C 24.535156 -18.789062 23.367188 -18.09375 21.921875 -18.09375 C 21.003906 -18.09375 20.265625 -18.304688 19.703125 -18.734375 C 19.148438 -19.171875 18.875 -19.773438 18.875 -20.546875 C 18.875 -20.878906 18.921875 -21.265625 19.015625 -21.703125 C 19.117188 -22.140625 19.195312 -22.453125 19.25 -22.640625 C 19.488281 -23.367188 19.609375 -24.046875 19.609375 -24.671875 C 19.609375 -25.296875 19.453125 -25.773438 19.140625 -26.109375 C 18.828125 -26.453125 18.378906 -26.625 17.796875 -26.625 C 16.679688 -26.625 15.640625 -26.128906 14.671875 -25.140625 C 13.710938 -24.148438 12.941406 -22.8125 12.359375 -21.125 C 11.785156 -19.4375 11.5 -17.578125 11.5 -15.546875 C 11.5 -9.953125 13.9375 -7.15625 18.8125 -7.15625 C 20.789062 -7.15625 22.921875 -7.816406 25.203125 -9.140625 C 27.492188 -10.472656 29.75 -12.46875 31.96875 -15.125 C 32.550781 -15.789062 33.203125 -16.125 33.921875 -16.125 C 34.554688 -16.125 35.050781 -15.832031 35.40625 -15.25 C 35.769531 -14.675781 35.953125 -13.882812 35.953125 -12.875 C 35.953125 -11.039062 35.492188 -9.546875 34.578125 -8.390625 C 32.316406 -5.597656 29.601562 -3.441406 26.4375 -1.921875 C 23.28125 -0.398438 20.234375 0.359375 17.296875 0.359375 Z M 17.296875 0.359375" transform="translate(23.55 272.389)"/></g></g></g><g fill="#4F3D20"><g><g><path d="M 40.375 -22.203125 C 41 -22.203125 41.476562 -21.890625 41.8125 -21.265625 C 42.15625 -20.640625 42.328125 -19.84375 42.328125 -18.875 C 42.328125 -16.5625 41.625 -15.191406 40.21875 -14.765625 C 37.320312 -13.742188 34.140625 -13.160156 30.671875 -13.015625 C 29.753906 -8.960938 27.945312 -5.71875 25.25 -3.28125 C 22.550781 -0.851562 19.488281 0.359375 16.0625 0.359375 C 13.164062 0.359375 10.691406 -0.335938 8.640625 -1.734375 C 6.597656 -3.128906 5.046875 -4.984375 3.984375 -7.296875 C 2.921875 -9.617188 2.390625 -12.128906 2.390625 -14.828125 C 2.390625 -18.492188 3.085938 -21.757812 4.484375 -24.625 C 5.878906 -27.5 7.804688 -29.742188 10.265625 -31.359375 C 12.734375 -32.972656 15.460938 -33.78125 18.453125 -33.78125 C 22.117188 -33.78125 25.070312 -32.515625 27.3125 -29.984375 C 29.550781 -27.453125 30.863281 -24.332031 31.25 -20.625 C 33.519531 -20.757812 36.222656 -21.238281 39.359375 -22.0625 C 39.742188 -22.15625 40.082031 -22.203125 40.375 -22.203125 Z M 16.640625 -7.3125 C 18.179688 -7.3125 19.519531 -7.9375 20.65625 -9.1875 C 21.789062 -10.4375 22.550781 -12.242188 22.9375 -14.609375 C 21.4375 -15.617188 20.285156 -16.941406 19.484375 -18.578125 C 18.691406 -20.222656 18.296875 -21.960938 18.296875 -23.796875 C 18.296875 -24.566406 18.367188 -25.335938 18.515625 -26.109375 L 18.15625 -26.109375 C 16.226562 -26.109375 14.625 -25.179688 13.34375 -23.328125 C 12.070312 -21.472656 11.4375 -18.859375 11.4375 -15.484375 C 11.4375 -12.828125 11.953125 -10.800781 12.984375 -9.40625 C 14.023438 -8.007812 15.242188 -7.3125 16.640625 -7.3125 Z M 16.640625 -7.3125" transform="translate(50.17 272.389)"/></g></g></g><g fill="#4F3D20"><g><g><path d="M 35.734375 -16.125 C 36.359375 -16.125 36.851562 -15.832031 37.21875 -15.25 C 37.582031 -14.675781 37.765625 -13.882812 37.765625 -12.875 C 37.765625 -10.945312 37.304688 -9.453125 36.390625 -8.390625 C 34.316406 -5.835938 32.050781 -3.738281 29.59375 -2.09375 C 27.132812 -0.457031 24.3125 0.359375 21.125 0.359375 C 11.28125 0.359375 6.359375 -6.5625 6.359375 -20.40625 C 6.359375 -22.519531 6.429688 -24.664062 6.578125 -26.84375 L 3.765625 -26.84375 C 2.316406 -26.84375 1.335938 -27.109375 0.828125 -27.640625 C 0.328125 -28.171875 0.078125 -29.015625 0.078125 -30.171875 C 0.078125 -32.867188 1.160156 -34.21875 3.328125 -34.21875 L 7.453125 -34.21875 C 8.273438 -39.519531 9.53125 -44.363281 11.21875 -48.75 C 12.90625 -53.144531 14.941406 -56.644531 17.328125 -59.25 C 19.710938 -61.851562 22.28125 -63.15625 25.03125 -63.15625 C 27.050781 -63.15625 28.640625 -62.257812 29.796875 -60.46875 C 30.960938 -58.6875 31.546875 -56.445312 31.546875 -53.75 C 31.546875 -46.269531 28.410156 -39.757812 22.140625 -34.21875 L 30.234375 -34.21875 C 31.003906 -34.21875 31.554688 -34.046875 31.890625 -33.703125 C 32.234375 -33.367188 32.40625 -32.742188 32.40625 -31.828125 C 32.40625 -28.503906 29.679688 -26.84375 24.234375 -26.84375 L 15.40625 -26.84375 C 15.3125 -24.425781 15.265625 -22.546875 15.265625 -21.203125 C 15.265625 -16.179688 15.851562 -12.65625 17.03125 -10.625 C 18.21875 -8.601562 20.085938 -7.59375 22.640625 -7.59375 C 24.710938 -7.59375 26.546875 -8.21875 28.140625 -9.46875 C 29.734375 -10.726562 31.613281 -12.613281 33.78125 -15.125 C 34.363281 -15.789062 35.015625 -16.125 35.734375 -16.125 Z M 23.078125 -56.21875 C 22.359375 -56.21875 21.550781 -55.3125 20.65625 -53.5 C 19.757812 -51.6875 18.910156 -49.175781 18.109375 -45.96875 C 17.316406 -42.757812 16.65625 -39.203125 16.125 -35.296875 C 18.976562 -37.765625 21.113281 -40.53125 22.53125 -43.59375 C 23.957031 -46.65625 24.671875 -49.4375 24.671875 -51.9375 C 24.671875 -54.789062 24.140625 -56.21875 23.078125 -56.21875 Z M 23.078125 -56.21875" transform="translate(82.795 272.389)"/></g></g></g><g fill="#4F3D20"><g><g><path d="M 12.375 0.359375 C 9.382812 0.359375 6.992188 -0.722656 5.203125 -2.890625 C 3.421875 -5.066406 2.53125 -7.914062 2.53125 -11.4375 C 2.53125 -15.289062 3.421875 -18.941406 5.203125 -22.390625 C 6.992188 -25.835938 9.367188 -28.609375 12.328125 -30.703125 C 15.296875 -32.804688 18.445312 -33.859375 21.78125 -33.859375 C 22.832031 -33.859375 23.539062 -33.648438 23.90625 -33.234375 C 24.269531 -32.828125 24.570312 -32.09375 24.8125 -31.03125 C 25.820312 -31.226562 26.882812 -31.328125 28 -31.328125 C 30.363281 -31.328125 31.546875 -30.484375 31.546875 -28.796875 C 31.546875 -27.785156 31.179688 -25.375 30.453125 -21.5625 C 29.347656 -16.007812 28.796875 -12.148438 28.796875 -9.984375 C 28.796875 -9.253906 28.972656 -8.671875 29.328125 -8.234375 C 29.691406 -7.804688 30.164062 -7.59375 30.75 -7.59375 C 31.664062 -7.59375 32.773438 -8.179688 34.078125 -9.359375 C 35.378906 -10.546875 37.140625 -12.46875 39.359375 -15.125 C 39.929688 -15.789062 40.582031 -16.125 41.3125 -16.125 C 41.9375 -16.125 42.425781 -15.832031 42.78125 -15.25 C 43.144531 -14.675781 43.328125 -13.882812 43.328125 -12.875 C 43.328125 -10.945312 42.867188 -9.453125 41.953125 -8.390625 C 39.984375 -5.929688 37.890625 -3.859375 35.671875 -2.171875 C 33.453125 -0.484375 31.304688 0.359375 29.234375 0.359375 C 27.640625 0.359375 26.175781 -0.179688 24.84375 -1.265625 C 23.519531 -2.347656 22.519531 -3.832031 21.84375 -5.71875 C 19.34375 -1.664062 16.1875 0.359375 12.375 0.359375 Z M 14.96875 -6.9375 C 16.03125 -6.9375 17.039062 -7.5625 18 -8.8125 C 18.96875 -10.070312 19.671875 -11.738281 20.109375 -13.8125 L 22.78125 -27.125 C 20.757812 -27.082031 18.890625 -26.320312 17.171875 -24.84375 C 15.460938 -23.375 14.101562 -21.429688 13.09375 -19.015625 C 12.082031 -16.609375 11.578125 -14.054688 11.578125 -11.359375 C 11.578125 -9.859375 11.878906 -8.742188 12.484375 -8.015625 C 13.085938 -7.296875 13.914062 -6.9375 14.96875 -6.9375 Z M 14.96875 -6.9375" transform="translate(111.224 272.389)"/></g></g></g><g fill="#4F3D20"><g><g><path d="M 17.296875 0.359375 C 12.566406 0.359375 8.882812 -0.976562 6.25 -3.65625 C 3.625 -6.332031 2.3125 -9.863281 2.3125 -14.25 C 2.3125 -18.15625 3.082031 -21.578125 4.625 -24.515625 C 6.164062 -27.460938 8.164062 -29.734375 10.625 -31.328125 C 13.09375 -32.921875 15.675781 -33.71875 18.375 -33.71875 C 21.03125 -33.71875 23.09375 -32.929688 24.5625 -31.359375 C 26.03125 -29.796875 26.765625 -27.785156 26.765625 -25.328125 C 26.765625 -23.296875 26.316406 -21.582031 25.421875 -20.1875 C 24.535156 -18.789062 23.367188 -18.09375 21.921875 -18.09375 C 21.003906 -18.09375 20.265625 -18.304688 19.703125 -18.734375 C 19.148438 -19.171875 18.875 -19.773438 18.875 -20.546875 C 18.875 -20.878906 18.921875 -21.265625 19.015625 -21.703125 C 19.117188 -22.140625 19.195312 -22.453125 19.25 -22.640625 C 19.488281 -23.367188 19.609375 -24.046875 19.609375 -24.671875 C 19.609375 -25.296875 19.453125 -25.773438 19.140625 -26.109375 C 18.828125 -26.453125 18.378906 -26.625 17.796875 -26.625 C 16.679688 -26.625 15.640625 -26.128906 14.671875 -25.140625 C 13.710938 -24.148438 12.941406 -22.8125 12.359375 -21.125 C 11.785156 -19.4375 11.5 -17.578125 11.5 -15.546875 C 11.5 -9.953125 13.9375 -7.15625 18.8125 -7.15625 C 20.789062 -7.15625 22.921875 -7.816406 25.203125 -9.140625 C 27.492188 -10.472656 29.75 -12.46875 31.96875 -15.125 C 32.550781 -15.789062 33.203125 -16.125 33.921875 -16.125 C 34.554688 -16.125 35.050781 -15.832031 35.40625 -15.25 C 35.769531 -14.675781 35.953125 -13.882812 35.953125 -12.875 C 35.953125 -11.039062 35.492188 -9.546875 34.578125 -8.390625 C 32.316406 -5.597656 29.601562 -3.441406 26.4375 -1.921875 C 23.28125 -0.398438 20.234375 0.359375 17.296875 0.359375 Z M 17.296875 0.359375" transform="translate(145.224 272.389)"/></g></g></g><g fill="#4F3D20"><g><g><path d="M 35.734375 -16.125 C 36.359375 -16.125 36.851562 -15.832031 37.21875 -15.25 C 37.582031 -14.675781 37.765625 -13.882812 37.765625 -12.875 C 37.765625 -10.945312 37.304688 -9.453125 36.390625 -8.390625 C 34.316406 -5.835938 32.050781 -3.738281 29.59375 -2.09375 C 27.132812 -0.457031 24.3125 0.359375 21.125 0.359375 C 11.28125 0.359375 6.359375 -6.5625 6.359375 -20.40625 C 6.359375 -22.519531 6.429688 -24.664062 6.578125 -26.84375 L 3.765625 -26.84375 C 2.316406 -26.84375 1.335938 -27.109375 0.828125 -27.640625 C 0.328125 -28.171875 0.078125 -29.015625 0.078125 -30.171875 C 0.078125 -32.867188 1.160156 -34.21875 3.328125 -34.21875 L 7.453125 -34.21875 C 8.273438 -39.519531 9.53125 -44.363281 11.21875 -48.75 C 12.90625 -53.144531 14.941406 -56.644531 17.328125 -59.25 C 19.710938 -61.851562 22.28125 -63.15625 25.03125 -63.15625 C 27.050781 -63.15625 28.640625 -62.257812 29.796875 -60.46875 C 30.960938 -58.6875 31.546875 -56.445312 31.546875 -53.75 C 31.546875 -46.269531 28.410156 -39.757812 22.140625 -34.21875 L 30.234375 -34.21875 C 31.003906 -34.21875 31.554688 -34.046875 31.890625 -33.703125 C 32.234375 -33.367188 32.40625 -32.742188 32.40625 -31.828125 C 32.40625 -28.503906 29.679688 -26.84375 24.234375 -26.84375 L 15.40625 -26.84375 C 15.3125 -24.425781 15.265625 -22.546875 15.265625 -21.203125 C 15.265625 -16.179688 15.851562 -12.65625 17.03125 -10.625 C 18.21875 -8.601562 20.085938 -7.59375 22.640625 -7.59375 C 24.710938 -7.59375 26.546875 -8.21875 28.140625 -9.46875 C 29.734375 -10.726562 31.613281 -12.613281 33.78125 -15.125 C 34.363281 -15.789062 35.015625 -16.125 35.734375 -16.125 Z M 23.078125 -56.21875 C 22.359375 -56.21875 21.550781 -55.3125 20.65625 -53.5 C 19.757812 -51.6875 18.910156 -49.175781 18.109375 -45.96875 C 17.316406 -42.757812 16.65625 -39.203125 16.125 -35.296875 C 18.976562 -37.765625 21.113281 -40.53125 22.53125 -43.59375 C 23.957031 -46.65625 24.671875 -49.4375 24.671875 -51.9375 C 24.671875 -54.789062 24.140625 -56.21875 23.078125 -56.21875 Z M 23.078125 -56.21875" transform="translate(282.183 272.389)"/></g></g></g><g fill="#4F3D20"><g><g><path d="M 35.734375 -16.125 C 36.359375 -16.125 36.851562 -15.832031 37.21875 -15.25 C 37.582031 -14.675781 37.765625 -13.882812 37.765625 -12.875 C 37.765625 -10.945312 37.304688 -9.453125 36.390625 -8.390625 C 34.609375 -6.222656 32.085938 -4.222656 28.828125 -2.390625 C 25.578125 -0.554688 22.09375 0.359375 18.375 0.359375 C 13.3125 0.359375 9.378906 -1.015625 6.578125 -3.765625 C 3.785156 -6.515625 2.390625 -10.273438 2.390625 -15.046875 C 2.390625 -18.378906 3.085938 -21.476562 4.484375 -24.34375 C 5.878906 -27.207031 7.816406 -29.484375 10.296875 -31.171875 C 12.785156 -32.867188 15.597656 -33.71875 18.734375 -33.71875 C 21.535156 -33.71875 23.78125 -32.882812 25.46875 -31.21875 C 27.15625 -29.550781 28 -27.296875 28 -24.453125 C 28 -21.117188 26.800781 -18.257812 24.40625 -15.875 C 22.019531 -13.488281 17.984375 -11.597656 12.296875 -10.203125 C 13.503906 -7.984375 15.796875 -6.875 19.171875 -6.875 C 21.335938 -6.875 23.804688 -7.632812 26.578125 -9.15625 C 29.359375 -10.675781 31.757812 -12.664062 33.78125 -15.125 C 34.363281 -15.789062 35.015625 -16.125 35.734375 -16.125 Z M 17.5 -26.625 C 15.71875 -26.625 14.210938 -25.585938 12.984375 -23.515625 C 11.753906 -21.441406 11.140625 -18.929688 11.140625 -15.984375 L 11.140625 -15.84375 C 13.984375 -16.519531 16.222656 -17.53125 17.859375 -18.875 C 19.503906 -20.226562 20.328125 -21.796875 20.328125 -23.578125 C 20.328125 -24.492188 20.070312 -25.226562 19.5625 -25.78125 C 19.0625 -26.34375 18.375 -26.625 17.5 -26.625 Z M 17.5 -26.625" transform="translate(310.612 272.389)"/></g></g></g></svg>